<?xml version="1.0" standalone="no"?>
<!DOCTYPE svg PUBLIC "-//W3C//DTD SVG 20010904//EN"
 "http://www.w3.org/TR/2001/REC-SVG-20010904/DTD/svg10.dtd">
<svg version="1.0" xmlns="http://www.w3.org/2000/svg"
 width="641.000000pt" height="641.000000pt" viewBox="0 0 641.000000 641.000000"
 preserveAspectRatio="xMidYMid meet">
<metadata>
Created by potrace 1.11, written by Peter Selinger 2001-2013
</metadata>
<g transform="translate(0.000000,641.000000) scale(0.100000,-0.100000)"
fill="#000000" stroke="none">
<path d="M3424 6386 c-74 -32 -165 -194 -210 -371 -4 -16 -8 -34 -10 -40 -17
-59 -53 -273 -54 -317 0 -23 -8 -29 -67 -52 -158 -61 -343 -168 -426 -245 -53
-51 -76 -82 -107 -145 -21 -45 -41 -94 -45 -111 -5 -23 -33 -51 -123 -122
-243 -191 -490 -418 -607 -558 -27 -33 -56 -66 -63 -73 -7 -8 -30 -40 -51 -71
-21 -31 -76 -90 -122 -131 -185 -165 -573 -549 -808 -800 -69 -74 -185 -195
-258 -270 -149 -153 -200 -214 -268 -319 -90 -138 -164 -325 -190 -476 -25
-141 -7 -379 38 -510 66 -194 219 -321 462 -384 40 -10 62 -14 145 -27 53 -7
290 -8 346 0 22 3 64 8 94 11 152 18 398 80 545 140 60 24 174 84 222 117 47
32 146 72 208 84 80 15 237 11 323 -8 79 -17 108 -22 204 -33 24 -3 63 -7 88
-10 25 -4 68 -8 95 -10 28 -2 93 -8 145 -12 119 -10 361 -10 460 -1 178 17
368 91 496 194 32 27 63 54 67 61 16 26 24 12 41 -70 10 -45 46 -215 82 -377
35 -162 82 -380 105 -485 22 -104 54 -248 69 -320 16 -71 52 -236 79 -365 28
-129 53 -245 56 -257 l5 -23 1004 0 1004 0 0 2027 0 2028 -25 40 c-24 37 -216
293 -255 340 -349 424 -681 738 -988 936 -137 89 -144 93 -165 104 -14 8 -28
45 -56 154 -40 153 -135 450 -150 465 -5 6 -9 18 -9 27 0 10 -23 49 -51 86
-119 159 -227 218 -331 184 -123 -41 -231 -275 -293 -634 -6 -37 -6 -37 -48
-33 -23 2 -50 5 -59 5 -9 1 -20 11 -24 24 -21 68 -131 288 -205 412 -10 17
-27 46 -38 65 -30 55 -100 129 -142 150 -44 23 -91 25 -135 6z"/>
</g>
</svg>
